<?xml version="1.0" encoding="UTF-8" standalone="no"?><!DOCTYPE svg PUBLIC "-//W3C//DTD SVG 1.1//EN" "http://www.w3.org/Graphics/SVG/1.1/DTD/svg11.dtd"><svg width="100%" height="100%" viewBox="0 0 1250 1250" version="1.1" xmlns="http://www.w3.org/2000/svg" xmlns:xlink="http://www.w3.org/1999/xlink" xml:space="preserve" xmlnsSerif="http://www.serif.com/" style="fill-rule:evenodd;clip-rule:evenodd;stroke-linejoin:round;stroke-miterlimit:2;"><g><path d="M300.081,570.335c-82.962,19.748 -202.729,56.129 -201.391,220.596c0.717,87.988 52.32,135.823 103.987,161.504c49.888,24.797 99.626,28.278 99.626,28.278c0.443,0.031 0.887,0.047 1.331,0.048l612.167,0.218c0.664,-0 1.329,-0.035 1.99,-0.106c-0,0 230.36,-24.671 233.726,-251.946c2.82,-190.418 -155.509,-239.063 -222.889,-256.573c-7.205,-1.872 -14.582,-3.902 -18.675,-5.046c-28.001,-50.498 -52.757,-109.585 -111.148,-150.082c-40.936,-28.392 -98.339,-48.104 -185.272,-48.603c-121.995,-0.7 -197.015,63.26 -243.51,134.267c-43.908,67.056 -61.711,140.374 -69.942,167.445Zm4.288,372.922c-5.357,-0.475 -45.105,-4.572 -85.001,-24.402c-41.112,-20.435 -82.609,-58.216 -83.179,-128.23c-1.177,-144.666 111.216,-169.514 181.568,-185.929c3.263,-0.761 7.342,-2.486 10.962,-6.961c1.371,-1.694 3.404,-5.023 5.232,-10.227c1.968,-5.6 4.619,-15.334 8.303,-27.982c21.289,-73.072 79.743,-254.502 271.064,-253.403c76.877,0.441 127.915,16.81 164.116,41.917c55.255,38.322 76.121,95.902 102.88,143.086c1.477,2.606 4.29,6.204 9.859,8.938c4.331,2.127 14.674,4.856 29.023,8.585c58.219,15.129 197.262,55.194 194.825,219.723c-2.765,186.701 -184.902,213.294 -199.297,215.105c-0.011,0.001 -610.315,-0.216 -610.315,-0.216l-0.04,-0.004Z"/></g></svg>