<?xml version="1.0" encoding="UTF-8" standalone="no"?><!DOCTYPE svg PUBLIC "-//W3C//DTD SVG 1.1//EN" "http://www.w3.org/Graphics/SVG/1.1/DTD/svg11.dtd"><svg width="100%" height="100%" viewBox="0 0 1250 1250" version="1.1" xmlns="http://www.w3.org/2000/svg" xmlns:xlink="http://www.w3.org/1999/xlink" xml:space="preserve" xmlnsSerif="http://www.serif.com/" style="fill-rule:evenodd;clip-rule:evenodd;stroke-linejoin:round;stroke-miterlimit:2;"><g><path d="M300.081,510.607c-82.962,19.748 -202.729,56.13 -201.391,220.596c0.717,87.989 52.32,135.824 103.987,161.505c49.888,24.797 99.626,28.277 99.626,28.277c0.443,0.032 0.887,0.048 1.331,0.048l612.167,0.218c0.664,0 1.329,-0.035 1.99,-0.105c-0,-0 230.36,-24.671 233.726,-251.946c2.82,-190.418 -155.509,-239.063 -222.889,-256.573c-7.205,-1.873 -14.582,-3.903 -18.675,-5.047c-28.001,-50.497 -52.757,-109.585 -111.148,-150.082c-40.936,-28.391 -98.339,-48.103 -185.272,-48.602c-121.995,-0.7 -197.015,63.259 -243.51,134.266c-43.908,67.057 -61.711,140.375 -69.942,167.445Zm4.288,372.923c-5.357,-0.476 -45.105,-4.573 -85.001,-24.403c-41.112,-20.434 -82.609,-58.215 -83.179,-128.229c-1.177,-144.667 111.216,-169.515 181.568,-185.93c3.263,-0.761 7.342,-2.486 10.962,-6.96c1.371,-1.695 3.404,-5.024 5.232,-10.228c1.968,-5.6 4.619,-15.334 8.303,-27.982c21.289,-73.072 79.743,-254.501 271.064,-253.403c76.877,0.441 127.915,16.81 164.116,41.918c55.255,38.322 76.121,95.902 102.88,143.086c1.477,2.605 4.29,6.203 9.859,8.938c4.331,2.126 14.674,4.855 29.023,8.584c58.219,15.13 197.262,55.195 194.825,219.723c-2.765,186.701 -184.902,213.295 -199.297,215.105c-0.011,0.002 -610.315,-0.216 -610.315,-0.216l-0.04,-0.003Z"/><path d="M243.624,1040.59c59.291,-1.236 745.989,1.102 764.559,0.036c9.184,-0.528 16.211,-8.411 15.684,-17.595c-0.527,-9.183 -8.411,-16.211 -17.595,-15.684c-18.54,1.065 -704.146,-1.317 -763.343,-0.083c-9.196,0.192 -16.507,7.814 -16.316,17.01c0.192,9.197 7.814,16.508 17.011,16.316Z"/></g></svg>