<?xml version="1.0" encoding="UTF-8" standalone="no"?><!DOCTYPE svg PUBLIC "-//W3C//DTD SVG 1.1//EN" "http://www.w3.org/Graphics/SVG/1.1/DTD/svg11.dtd"><svg width="100%" height="100%" viewBox="0 0 1250 1250" version="1.1" xmlns="http://www.w3.org/2000/svg" xmlns:xlink="http://www.w3.org/1999/xlink" xml:space="preserve" xmlnsSerif="http://www.serif.com/" style="fill-rule:evenodd;clip-rule:evenodd;stroke-linecap:round;stroke-linejoin:round;stroke-miterlimit:1.5;"><g><path d="M264.79,967.415l554.923,0.198c0,-0 193.843,-20.622 196.674,-211.738c2.979,-201.095 -208.366,-213.649 -214.064,-223.697c-42.327,-74.638 -71.103,-175.251 -256.716,-176.316c-229.911,-1.32 -262.65,268.944 -271.883,271.098c-69.494,16.215 -178.887,42.334 -177.724,185.234c1.166,143.228 168.79,155.221 168.79,155.221Z" style="fill:#525252;"/><path d="M260.174,610.896c-75.742,18.1 -184.141,51.801 -182.923,201.451c0.656,80.601 47.906,124.433 95.235,147.958c45.551,22.641 90.966,25.812 90.966,25.812c0.443,0.032 0.887,0.048 1.331,0.048l554.923,0.198c0.665,-0 1.33,-0.035 1.991,-0.105c-0,-0 210.364,-22.545 213.438,-230.105c2.866,-193.524 -177.03,-226.366 -219.465,-238.522c-25.4,-45.877 -48.029,-99.398 -101.019,-136.148c-37.33,-25.891 -89.663,-43.916 -168.936,-44.371c-111.324,-0.639 -179.79,57.709 -222.217,122.504c-39.419,60.2 -55.714,125.942 -63.324,151.28Zm5.345,337.766c-5.044,-0.454 -40.626,-4.185 -76.341,-21.937c-36.775,-18.279 -73.919,-52.057 -74.429,-114.683c-1.057,-129.927 100.051,-152.08 163.236,-166.822c3.243,-0.757 7.302,-2.466 10.901,-6.914c1.134,-1.403 2.633,-3.69 4.007,-7.067c1.913,-4.698 4.641,-14.651 8.583,-28.182c19.177,-65.826 71.675,-229.435 244.023,-228.445c69.218,0.397 115.186,15.079 147.781,37.685c49.846,34.57 68.595,86.566 92.733,129.131c1.454,2.564 4.209,6.119 9.69,8.811c3.977,1.952 13.466,4.481 26.641,7.904c52.347,13.604 177.486,49.521 175.295,197.455c-2.479,167.339 -165.332,191.525 -178.998,193.261c-26.807,-0.006 -530.734,-0.186 -553.079,-0.194l-0.043,-0.003Z"/><path d="M777.497,148.764l-0,-104.18" style="fill:none;stroke:#000;stroke-width:33.33px;"/><path d="M1049.54,423.04l104.18,0" style="fill:none;stroke:#000;stroke-width:33.33px;"/><path d="M511.178,155.46l73.666,73.667" style="fill:none;stroke:#000;stroke-width:33.33px;"/><path d="M1045.91,153.944l-73.667,73.667" style="fill:none;stroke:#000;stroke-width:33.33px;"/><path d="M575.335,831.781l-93.779,277.205l114.807,-77.93l-61.2,175.556" style="fill:none;stroke:#000;stroke-width:33.33px;"/><path d="M887.586,553.153c22.557,-19.02 39.809,-43.555 50.076,-71.217c32.834,-88.466 -12.332,-186.946 -100.797,-219.78c-88.525,-32.857 -186.924,12.272 -219.78,100.796" style="fill:none;stroke:#000;stroke-width:37.5px;"/></g></svg>