<?xml version="1.0" encoding="UTF-8" standalone="no"?><!DOCTYPE svg PUBLIC "-//W3C//DTD SVG 1.1//EN" "http://www.w3.org/Graphics/SVG/1.1/DTD/svg11.dtd"><svg width="100%" height="100%" viewBox="0 0 1250 1250" version="1.1" xmlns="http://www.w3.org/2000/svg" xmlns:xlink="http://www.w3.org/1999/xlink" xml:space="preserve" xmlnsSerif="http://www.serif.com/" style="fill-rule:evenodd;clip-rule:evenodd;stroke-linecap:round;stroke-linejoin:round;stroke-miterlimit:1.5;"><g><path d="M299.102,846.669l620.503,0.221c-0,0 216.75,-23.059 219.916,-236.76c3.33,-224.86 -232.99,-238.897 -239.362,-250.132c-47.329,-83.459 -79.506,-195.962 -287.054,-197.153c-257.08,-1.476 -293.688,300.727 -304.013,303.136c-77.706,18.13 -200.027,47.336 -198.726,207.124c1.303,160.154 188.736,173.564 188.736,173.564Z" style="fill:#e5e5e5;"/><path d="M295.697,449.874c-84.017,19.989 -205.437,56.762 -204.081,223.384c0.725,89.064 52.962,137.482 105.261,163.477c50.52,25.111 100.887,28.636 100.887,28.636c0.443,0.032 0.887,0.048 1.332,0.048l620.502,0.221c0.665,0 1.329,-0.035 1.99,-0.105c0,-0 233.272,-24.981 236.681,-255.127c2.856,-192.835 -157.499,-242.084 -225.734,-259.816c-7.358,-1.912 -14.893,-3.989 -19.038,-5.149c-28.386,-51.178 -53.451,-111.083 -112.633,-152.129c-41.462,-28.756 -99.603,-48.714 -187.651,-49.219c-123.55,-0.709 -199.524,64.068 -246.611,135.979c-44.562,68.055 -62.584,142.476 -70.905,169.8Zm4.133,378.042c-5.401,-0.479 -45.757,-4.629 -86.262,-24.762c-41.743,-20.748 -83.874,-59.112 -84.453,-130.202c-1.195,-146.813 112.841,-172.053 184.238,-188.712c3.265,-0.762 7.347,-2.489 10.97,-6.967c1.379,-1.705 3.422,-5.056 5.261,-10.291c1.994,-5.674 4.679,-15.536 8.412,-28.35c21.596,-74.127 80.918,-258.152 275.002,-257.038c77.992,0.448 129.768,17.063 166.495,42.534c56.043,38.869 77.217,97.262 104.357,145.119c1.48,2.611 4.302,6.215 9.884,8.956c4.382,2.152 14.849,4.91 29.37,8.684c59.074,15.351 200.141,56.02 197.669,222.966c-2.807,189.51 -187.732,216.461 -202.25,218.285c-0.012,0.002 -618.654,-0.219 -618.654,-0.219l-0.039,-0.003Z"/><path d="M746.358,931.637l-89.734,155.423" style="fill:none;stroke:#000;stroke-width:33.33px;"/><path d="M569.575,931.637l-89.733,155.423" style="fill:none;stroke:#000;stroke-width:33.33px;"/></g></svg>