<?xml version="1.0" encoding="UTF-8" standalone="no"?><!DOCTYPE svg PUBLIC "-//W3C//DTD SVG 1.1//EN" "http://www.w3.org/Graphics/SVG/1.1/DTD/svg11.dtd"><svg width="100%" height="100%" viewBox="0 0 1250 1250" version="1.1" xmlns="http://www.w3.org/2000/svg" xmlns:xlink="http://www.w3.org/1999/xlink" xml:space="preserve" xmlnsSerif="http://www.serif.com/" style="fill-rule:evenodd;clip-rule:evenodd;stroke-linecap:round;stroke-linejoin:round;stroke-miterlimit:1.5;"><g><path d="M290.764,838.37l636.417,0.227c0,0 222.311,-23.65 225.557,-242.832c3.416,-230.628 -238.965,-245.025 -245.501,-256.549c-48.543,-85.599 -81.545,-200.988 -294.416,-202.209c-263.675,-1.514 -301.222,308.44 -311.811,310.911c-79.699,18.595 -205.158,48.55 -203.824,212.436c1.337,164.262 193.578,178.016 193.578,178.016Z" style="fill:#525252;"/><path d="M287.652,431.8c-86.009,20.445 -210.605,57.956 -209.215,228.707c0.741,91.118 54.189,140.649 107.694,167.244c51.726,25.71 103.295,29.322 103.295,29.322c0.443,0.031 0.887,0.047 1.331,0.047l636.418,0.227c0.664,0 1.329,-0.035 1.99,-0.105c-0,-0 238.831,-25.573 242.321,-261.2c2.925,-197.448 -161.296,-247.851 -231.163,-266.007c-7.656,-1.99 -15.496,-4.156 -19.734,-5.345c-29.116,-52.467 -54.769,-113.94 -115.468,-156.038c-42.464,-29.451 -102.016,-49.877 -192.193,-50.395c-126.517,-0.726 -204.313,65.611 -252.531,139.25c-45.817,69.971 -64.255,146.511 -72.745,174.293Zm3.839,387.817c-5.484,-0.484 -47,-4.735 -88.669,-25.447c-42.95,-21.348 -86.291,-60.825 -86.886,-133.968c-1.229,-150.912 115.945,-176.901 189.335,-194.025c3.431,-0.801 9.682,-3.143 13.916,-11.594c2.303,-4.598 5.834,-17.095 11.007,-34.85c22.182,-76.142 83.16,-265.121 282.519,-263.977c80.121,0.46 133.308,17.544 171.037,43.711c57.547,39.911 79.31,99.857 107.178,148.999c1.487,2.622 4.325,6.238 9.931,8.991c4.481,2.201 15.185,5.014 30.032,8.872c60.707,15.776 205.64,57.599 203.099,229.158c-2.886,194.875 -193.136,222.508 -207.888,224.358c-0.014,0.002 -634.573,-0.224 -634.573,-0.224l-0.038,-0.004Z"/><path d="M816.814,682.817l-107.552,317.915l131.668,-89.375l-70.188,201.338" style="fill:none;stroke:#000;stroke-width:33.33px;"/><g><path d="M593.792,1000.29l-196.869,0" style="fill:none;stroke:#000;stroke-width:33.33px;"/><path d="M543.632,914.098l-98.434,170.493" style="fill:none;stroke:#000;stroke-width:33.33px;"/><path d="M544.575,1084.35l-98.434,-170.493" style="fill:none;stroke:#000;stroke-width:33.33px;"/></g></g></svg>