<?xml version="1.0" encoding="UTF-8" standalone="no"?><!DOCTYPE svg PUBLIC "-//W3C//DTD SVG 1.1//EN" "http://www.w3.org/Graphics/SVG/1.1/DTD/svg11.dtd"><svg width="100%" height="100%" viewBox="0 0 1250 1250" version="1.1" xmlns="http://www.w3.org/2000/svg" xmlns:xlink="http://www.w3.org/1999/xlink" xml:space="preserve" xmlnsSerif="http://www.serif.com/" style="fill-rule:evenodd;clip-rule:evenodd;stroke-linecap:round;stroke-linejoin:round;stroke-miterlimit:1.5;"><g><path d="M902.651,583.791c-27.204,-53.141 -51.229,-115.423 -107.92,-158.053c-39.936,-30.031 -95.916,-50.87 -180.724,-51.398c-81.72,-0.508 -138.695,28.696 -183.133,72.902c-7.337,7.298 -7.368,19.18 -0.07,26.516c7.299,7.337 19.18,7.368 26.517,0.07c37.94,-37.742 86.683,-62.423 156.452,-61.989c74.198,0.462 123.481,17.597 158.421,43.871c53.721,40.397 73.962,101.039 99.977,150.777c1.435,2.745 4.152,6.408 9.563,9.289c4.249,2.262 14.377,5.179 28.455,9.145c56.642,15.96 191.442,58.78 189.071,232.338c-2.685,196.509 -178.616,225.303 -193.061,227.336c-0.009,0.002 -592.219,-0.227 -592.219,-0.227c-11.426,-1.045 -161.705,-17.512 -162.786,-161.606c-0.823,-109.634 54.788,-154.386 111.443,-177.054c9.608,-3.844 14.287,-14.765 10.443,-24.373c-3.844,-9.608 -14.765,-14.288 -24.373,-10.443c-68.099,27.246 -136.001,80.371 -135.012,212.151c1.372,182.808 198.042,198.768 198.042,198.768c0.48,0.038 0.961,0.056 1.442,0.057l594.22,0.229c0.721,0 1.441,-0.041 2.156,-0.123c0,-0 223.938,-25.347 227.201,-264.203c3.054,-223.575 -189.854,-260.098 -234.105,-273.98Z"/></g><path d="M665.768,145.849c-252.707,-0 -457.873,178.069 -457.873,397.4c-0,219.33 205.166,397.399 457.873,397.399c-127.301,-65.736 -230.654,-221.175 -230.654,-397.399c0,-176.225 103.353,-331.664 230.654,-397.4Z" style="fill:none;stroke:#000;stroke-width:37.5px;"/></svg>