<?xml version="1.0" encoding="UTF-8" standalone="no"?><!DOCTYPE svg PUBLIC "-//W3C//DTD SVG 1.1//EN" "http://www.w3.org/Graphics/SVG/1.1/DTD/svg11.dtd"><svg width="100%" height="100%" viewBox="0 0 1250 1250" version="1.1" xmlns="http://www.w3.org/2000/svg" xmlns:xlink="http://www.w3.org/1999/xlink" xml:space="preserve" xmlnsSerif="http://www.serif.com/" style="fill-rule:evenodd;clip-rule:evenodd;stroke-linecap:round;stroke-linejoin:round;stroke-miterlimit:1.5;"><g><path d="M288.047,861.847l641.778,0.236c-0,-0 224.183,-24.636 227.456,-252.949c3.445,-240.236 -240.978,-255.234 -247.568,-267.237c-48.952,-89.166 -82.232,-209.362 -296.896,-210.635c-265.896,-1.576 -303.759,321.291 -314.437,323.865c-80.371,19.37 -206.886,50.573 -205.541,221.287c1.348,171.105 195.208,185.433 195.208,185.433Z" style="fill:#e5e5e5;"/><path d="M284.898,439.118c-59.29,14.599 -136.956,38.008 -179.48,108.154c-19.405,32.011 -31.766,73.81 -31.329,129.29c1.476,187.229 212.576,203.984 212.576,203.984c0.457,0.034 0.916,0.051 1.375,0.051l641.778,0.236c0.686,0 1.373,-0.037 2.055,-0.112c-0,-0 240.644,-26.343 244.156,-271.319c2.944,-205.254 -162.534,-257.401 -232.846,-276.275c-7.74,-2.077 -15.669,-4.339 -19.921,-5.571c-29.36,-54.621 -55.191,-118.685 -116.382,-162.523c-42.854,-30.701 -102.947,-51.981 -193.952,-52.52c-127.562,-0.757 -206.063,68.236 -254.679,144.93c-46.335,73.095 -64.852,153.09 -73.351,181.675Zm3.858,403.977c-11.841,-0.992 -175.991,-17.433 -177.168,-166.829c-0.37,-46.948 9.477,-82.466 25.898,-109.554c38.865,-64.11 112.976,-80.749 165.287,-93.357c3.273,-0.789 7.413,-2.566 11.044,-7.202c1.368,-1.747 3.387,-5.196 5.212,-10.559c2.056,-6.044 4.823,-16.55 8.673,-30.199c22.394,-79.402 83.743,-276.576 285.003,-275.383c80.727,0.479 134.322,18.272 172.336,45.506c58.117,41.635 80.092,104.138 108.236,155.402c1.477,2.69 4.29,6.344 9.856,9.168c4.526,2.295 15.332,5.232 30.327,9.257c61.362,16.472 207.642,60.394 205.073,239.52c-2.916,203.401 -194.872,232.506 -209.834,234.466c-30.036,-0.01 -639.919,-0.234 -639.919,-0.234l-0.024,-0.002Z"/><path d="M606.366,952.624l-92.811,166.051" style="fill:none;stroke:#000;stroke-width:33.33px;"/><path d="M423.522,952.624l-92.811,166.051" style="fill:none;stroke:#000;stroke-width:33.33px;"/><g><path d="M892.008,1035.65l-185.621,-0" style="fill:none;stroke:#000;stroke-width:33.33px;"/><path d="M844.714,951.706l-92.811,166.051" style="fill:none;stroke:#000;stroke-width:33.33px;"/><path d="M845.603,1117.53l-92.81,-166.051" style="fill:none;stroke:#000;stroke-width:33.33px;"/></g></g></svg>