<?xml version="1.0" encoding="UTF-8" standalone="no"?><!DOCTYPE svg PUBLIC "-//W3C//DTD SVG 1.1//EN" "http://www.w3.org/Graphics/SVG/1.1/DTD/svg11.dtd"><svg width="100%" height="100%" viewBox="0 0 1250 1250" version="1.1" xmlns="http://www.w3.org/2000/svg" xmlns:xlink="http://www.w3.org/1999/xlink" xml:space="preserve" xmlnsSerif="http://www.serif.com/" style="fill-rule:evenodd;clip-rule:evenodd;stroke-linecap:round;stroke-linejoin:round;stroke-miterlimit:1.5;"><g><path d="M454.408,350.369c-5.351,27.004 -8.47,49.498 -8.47,77.982c0,166.142 97.44,312.688 217.458,374.663c-167.231,0 -312.379,-82.712 -384.053,-203.533l-2.581,3.334c-58.808,23.529 -117.032,69.668 -116.177,183.469c1.177,156.777 170.402,169.905 170.402,169.905l560.223,0.216c0,0 195.695,-22.573 198.553,-231.768c3.007,-220.118 -210.356,-233.86 -216.109,-244.858c-42.731,-81.7 -71.782,-191.83 -259.168,-192.996c-71.411,-0.445 -121.246,24.956 -160.078,63.586Z" style="fill:#525252;"/><path d="M265.009,589.019l4.788,-3.612c-64.531,25.818 -128.899,76.143 -127.962,201.018c1.301,173.294 187.701,188.458 187.701,188.458c0.48,0.037 0.962,0.056 1.443,0.056l560.224,0.216c0.72,0 1.44,-0.041 2.156,-0.123c-0,-0 212.063,-23.978 215.152,-250.138c2.881,-210.876 -178.381,-245.975 -221.036,-259.215c-25.632,-50.133 -48.4,-108.781 -101.849,-148.973c-37.795,-28.421 -90.763,-48.173 -171.023,-48.673c-77.386,-0.482 -131.337,27.181 -173.419,69.043c-2.644,2.63 -4.444,5.99 -5.169,9.649c-5.6,28.264 -8.827,51.813 -8.827,81.626c0,143.958 70.25,273.696 165.749,350.743c-129.807,-19.263 -239.144,-90.862 -297.468,-189.18l-16.126,28.317l-14.334,-29.212Zm8.08,35.767c77.653,117.405 223.297,196.978 390.307,196.978c8.65,0 16.178,-5.917 18.22,-14.323c2.042,-8.406 -1.931,-17.117 -9.617,-21.086c-114.615,-59.186 -207.311,-199.342 -207.311,-358.004c0,-25.124 2.578,-45.357 7.003,-68.632l0.004,-0.004c34.991,-33.16 79.703,-54.575 142.674,-54.183c69.65,0.434 115.921,16.482 148.719,41.145c50.508,37.981 69.492,95.028 93.952,141.792c1.421,2.718 4.104,6.353 9.463,9.206c4.038,2.15 13.659,4.938 27.039,8.708c53.155,14.977 179.697,55.126 177.473,217.998c-2.514,184.024 -166.966,211.279 -181.001,213.27c-0.025,0.004 -558.234,-0.212 -558.234,-0.212c-11.052,-1.014 -151.434,-16.541 -152.446,-151.296c-0.719,-95.845 44.566,-138.786 93.755,-161.357Z"/><path d="M779.662,821.476l-93.78,277.206l114.807,-77.931l-61.2,175.557" style="fill:none;stroke:#000;stroke-width:33.33px;"/><path d="M663.396,53.687c-238.249,-0 -431.678,167.881 -431.678,374.664c0,206.782 193.429,374.663 431.678,374.663c-120.018,-61.975 -217.458,-208.521 -217.458,-374.663c0,-166.143 97.44,-312.689 217.458,-374.664Z" style="fill:none;stroke:#000;stroke-width:37.5px;"/><g><path d="M595.884,1099.87l-160.5,-0" style="fill:none;stroke:#000;stroke-width:33.33px;"/><path d="M554.99,1029.6l-80.25,138.997" style="fill:none;stroke:#000;stroke-width:33.33px;"/><path d="M555.759,1168.4l-80.25,-138.997" style="fill:none;stroke:#000;stroke-width:33.33px;"/></g></g></svg>