<?xml version="1.0" encoding="UTF-8" standalone="no"?><!DOCTYPE svg PUBLIC "-//W3C//DTD SVG 1.1//EN" "http://www.w3.org/Graphics/SVG/1.1/DTD/svg11.dtd"><svg width="100%" height="100%" viewBox="0 0 1250 1250" version="1.1" xmlns="http://www.w3.org/2000/svg" xmlns:xlink="http://www.w3.org/1999/xlink" xml:space="preserve" xmlnsSerif="http://www.serif.com/" style="fill-rule:evenodd;clip-rule:evenodd;stroke-linecap:round;stroke-linejoin:round;stroke-miterlimit:1.5;"><g><path d="M625.091,178.286l0,-136.889" style="fill:none;stroke:#3f40cc;stroke-width:33.33px;"/><path d="M625.091,1208.37l0,-136.889" style="fill:none;stroke:#3f40cc;stroke-width:33.33px;"/><path d="M1071.93,624.643l136.89,0" style="fill:none;stroke:#3f40cc;stroke-width:33.33px;"/><path d="M41.888,624.643l136.889,0" style="fill:none;stroke:#3f40cc;stroke-width:33.33px;"/><path d="M213.213,211.108l96.796,96.796" style="fill:none;stroke:#3f40cc;stroke-width:33.33px;"/><path d="M943.641,941.536l96.796,96.796" style="fill:none;stroke:#3f40cc;stroke-width:33.33px;"/><path d="M308.7,940.132l-96.796,96.795" style="fill:none;stroke:#3f40cc;stroke-width:33.33px;"/><path d="M1037.5,211.335l-96.795,96.795" style="fill:none;stroke:#3f40cc;stroke-width:33.33px;"/><path d="M625.187,401.691c122.802,0 222.502,99.7 222.502,222.503c0,122.802 -99.7,222.502 -222.502,222.502c-122.803,0 -222.503,-99.7 -222.503,-222.502c-0,-122.803 99.7,-222.503 222.503,-222.503Zm-0,0.278c122.649,0 222.224,99.576 222.224,222.225c-0,122.649 -99.575,222.224 -222.224,222.224c-122.65,0 -222.225,-99.575 -222.225,-222.224c0,-122.649 99.575,-222.225 222.225,-222.225Z" style="fill:#ff006f;stroke:#3f40cc;stroke-width:37.5px;"/></g></svg>